{"asset":{"version":"2.0","generator":"babylon.js glTF exporter for Maya 2018 v20210107.7"},"scene":0,"scenes":[{"nodes":[0,1]}],"nodes":[{"skin":0,"mesh":0,"translation":[-0.0527260862,0.09904526,0.0009752893],"scale":[8.0,8.0,8.0],"name":"blasippa"},{"children":[2],"translation":[0.00433630357,-0.0008040144,0.0221277811],"name":"joint1"},{"translation":[0.0,0.462302,0.05239458],"scale":[1.21879447,1.21879447,1.21879447],"name":"joint2"}],"meshes":[{"primitives":[{"attributes":{"POSITION":1,"TANGENT":2,"NORMAL":3,"TEXCOORD_0":4,"JOINTS_0":5,"WEIGHTS_0":6},"indices":0,"material":0}],"name":"blasippa"}],"accessors":[{"bufferView":0,"componentType":5123,"count":2085,"type":"SCALAR","name":"accessorIndices"},{"bufferView":1,"componentType":5126,"count":577,"max":[0.08289187,0.0299901143,0.08820053],"min":[-0.0687778741,-0.0187302828,-0.06723179],"type":"VEC3","name":"accessorPositions"},{"bufferView":2,"componentType":5126,"count":577,"type":"VEC4","name":"accessorTangents"},{"bufferView":1,"byteOffset":6924,"componentType":5126,"count":577,"type":"VEC3","name":"accessorNormals"},{"bufferView":3,"componentType":5126,"count":577,"type":"VEC2","name":"accessorUVs"},{"bufferView":4,"componentType":5123,"count":577,"type":"VEC4","name":"accessorJoints"},{"bufferView":2,"byteOffset":9232,"componentType":5126,"count":577,"type":"VEC4","name":"accessorWeights"},{"bufferView":5,"componentType":5126,"count":2,"type":"MAT4","name":"accessorInverseBindMatrices"},{"bufferView":6,"componentType":5126,"count":30,"max":[0.966666639],"min":[0.0],"type":"SCALAR","name":"accessorAnimationInput"},{"bufferView":7,"componentType":5126,"count":30,"type":"VEC3","name":"accessorAnimationPositions"},{"bufferView":8,"componentType":5126,"count":30,"type":"VEC4","name":"accessorAnimationRotations"},{"bufferView":7,"byteOffset":360,"componentType":5126,"count":30,"type":"VEC3","name":"accessorAnimationScales"},{"bufferView":6,"byteOffset":120,"componentType":5126,"count":31,"max":[1.0],"min":[0.0],"type":"SCALAR","name":"accessorAnimationInput"},{"bufferView":7,"byteOffset":720,"componentType":5126,"count":31,"type":"VEC3","name":"accessorAnimationPositions"},{"bufferView":8,"byteOffset":480,"componentType":5126,"count":31,"type":"VEC4","name":"accessorAnimationRotations"},{"bufferView":7,"byteOffset":1092,"componentType":5126,"count":31,"type":"VEC3","name":"accessorAnimationScales"}],"bufferViews":[{"buffer":0,"byteLength":4172,"name":"bufferViewScalar"},{"buffer":0,"byteOffset":4172,"byteLength":13848,"byteStride":12,"name":"bufferViewFloatVec3"},{"buffer":0,"byteOffset":18020,"byteLength":18464,"byteStride":16,"name":"bufferViewFloatVec4"},{"buffer":0,"byteOffset":36484,"byteLength":4616,"byteStride":8,"name":"bufferViewFloatVec2"},{"buffer":0,"byteOffset":41100,"byteLength":4616,"byteStride":8,"name":"bufferViewUnsignedShortVec4"},{"buffer":0,"byteOffset":45716,"byteLength":128,"name":"bufferViewFloatMat4"},{"buffer":0,"byteOffset":45844,"byteLength":244,"name":"bufferViewAnimationFloatScalar"},{"buffer":0,"byteOffset":46088,"byteLength":1464,"name":"bufferViewAnimationFloatVec3"},{"buffer":0,"byteOffset":47552,"byteLength":976,"name":"bufferViewAnimationFloatVec4"}],"buffers":[{"uri":"blasippa.bin","byteLength":48528}],"materials":[{"pbrMetallicRoughness":{"baseColorFactor":[0.100565016,0.005910806,0.0987300649,1.0],"metallicFactor":0.0,"roughnessFactor":0.59},"emissiveTexture":{"index":0},"emissiveFactor":[1.0,1.0,1.0],"name":"blasippa_mat"}],"textures":[{"sampler":0,"source":0,"name":"blasippa.png"}],"images":[{"uri":"blasippa.png"}],"samplers":[{"magFilter":9729,"minFilter":9987}],"animations":[{"channels":[{"sampler":0,"target":{"node":2,"path":"translation"}},{"sampler":1,"target":{"node":2,"path":"rotation"}},{"sampler":2,"target":{"node":2,"path":"scale"}}],"samplers":[{"input":8,"output":9},{"input":8,"output":10},{"input":8,"output":11}],"name":"blueAnemone_appear"},{"channels":[{"sampler":0,"target":{"node":2,"path":"translation"}},{"sampler":1,"target":{"node":2,"path":"rotation"}},{"sampler":2,"target":{"node":2,"path":"scale"}}],"samplers":[{"input":12,"output":13},{"input":12,"output":14},{"input":12,"output":15}],"name":"blueAnemone_idle"}],"skins":[{"inverseBindMatrices":7,"skeleton":1,"joints":[1,2],"name":"skeleton #0"}]}